<?xml version="1.0" encoding="UTF-8"?>
<!DOCTYPE svg PUBLIC "-//W3C//DTD SVG 1.1//EN" "http://www.w3.org/Graphics/SVG/1.1/DTD/svg11.dtd">
<!-- Creator: CorelDRAW -->
<svg xmlns="http://www.w3.org/2000/svg" xml:space="preserve" width="2.30874in" height="2.30646in" style="shape-rendering:geometricPrecision; text-rendering:geometricPrecision; image-rendering:optimizeQuality; fill-rule:evenodd; clip-rule:evenodd"
viewBox="0 0 0.839608 0.838781"
 xmlns:xlink="http://www.w3.org/1999/xlink">
 <defs>
  <style type="text/css">
   <![CDATA[
    .fil0 {fill:#ED1C24}
   ]]>
  </style>
 </defs>
 <g id="Layer_x0020_1">
  <metadata id="CorelCorpID_0Corel-Layer"/>
  <path class="fil0 deadpool" d="M0.375184 0.00223211c0.0520285,-0.00533186 0.104842,-0.000980752 0.155536,0.0116846 0.0794738,0.0223468 0.152476,0.0679454 0.206309,0.130678 0.0567719,0.0648485 0.0922551,0.14785 0.100723,0.233556 0.00772432,0.0839037 -0.0085848,0.170631 -0.0505767,0.244066 -0.0413634,0.0758658 -0.107035,0.138323 -0.185215,0.175297 -0.0831578,0.0405401 -0.18,0.0510864 -0.270374,0.0321887 -0.109388,-0.0241122 -0.208621,-0.093117 -0.267274,-0.188823 -0.0265834,-0.0394033 -0.0425417,-0.0849231 -0.0536364,-0.130874 -0.0221135,-0.0897453 -0.00878238,-0.186274 0.0299552,-0.269628 0.0275226,-0.0599089 0.0710823,-0.111428 0.12209,-0.152791 0.0610858,-0.047676 0.135382,-0.077435 0.212464,-0.0853541zm0.132953 0.0973121c-0.000823259,0.00662759 -0.00125565,0.0132924 -0.00117547,0.0199572 0.000392301,0.206505 -0.000392301,0.413008 0.000392301,0.619513 0.0774737,-0.0215236 0.147025,-0.0712398 0.190547,-0.139068 0.0360702,-0.0563009 0.056341,-0.123463 0.0532828,-0.190547 -0.000784602,-0.0727303 -0.0290131,-0.143851 -0.0747691,-0.199957 -0.0426964,-0.0534002 -0.102996,-0.0908048 -0.168277,-0.109897zm-0.297426 0.0637102c-0.0480683,0.0388936 -0.0835515,0.092059 -0.104136,0.150164 -0.0262297,0.0821011 -0.021641,0.174943 0.0176435,0.252142 0.0399918,0.0843361 0.118798,0.146322 0.207407,0.173375 0.000588451,-0.00792047 0.00105807,-0.0158409 0.00113681,-0.0238001 -3.86574e-005,-0.192037 0,-0.384113 -4.00891e-005,-0.57619 -3.86574e-005,-0.0127813 0.00062854,-0.0255626 -0.00101798,-0.0382651 -0.043952,0.0125064 -0.0858638,0.0331294 -0.120993,0.0625734zm-0.069632 0.233754c0.0497535,0.0334444 0.101703,0.0636343 0.151417,0.0971947 -0.0196022,0.0151737 -0.0441453,0.0288957 -0.0698267,0.0241136 -0.0192113,-0.00309832 -0.0372858,-0.0138809 -0.0480296,-0.0302301 -0.0198384,-0.0262684 -0.0306983,-0.0584571 -0.0335603,-0.0910782zm0.408931 0.0960579c0.0501458,-0.0313268 0.0990774,-0.0645349 0.150085,-0.0944113 -0.0034491,0.0276815 -0.0135659,0.0541447 -0.0266206,0.0786506 -0.0105864,0.0175633 -0.0261524,0.0342275 -0.047089,0.0384226 -0.0271704,0.00733202 -0.0570454,-0.00278476 -0.0763755,-0.0226618z"/>
 </g>
</svg>
